<mxfile host="app.diagrams.net" modified="2023-03-17T08:40:54.374Z" agent="5.0 (Macintosh; Intel Mac OS X 10_15_7) AppleWebKit/537.36 (KHTML, like Gecko) Chrome/109.0.0.0 Safari/537.36" etag="B-P4LoxEc9mp_WcfCap-" version="21.0.4" type="github">
  <diagram id="967LHhQagHarZpW6RCrs" name="第 1 页">
    <mxGraphModel dx="761" dy="549" grid="1" gridSize="10" guides="1" tooltips="1" connect="1" arrows="1" fold="1" page="1" pageScale="1" pageWidth="827" pageHeight="1169" math="0" shadow="0">
      <root>
        <mxCell id="0" />
        <mxCell id="1" parent="0" />
        <mxCell id="3LhNPNoVYmogercakAYq-18" style="edgeStyle=orthogonalEdgeStyle;rounded=0;orthogonalLoop=1;jettySize=auto;html=1;" parent="1" source="3LhNPNoVYmogercakAYq-1" target="3LhNPNoVYmogercakAYq-8" edge="1">
          <mxGeometry relative="1" as="geometry" />
        </mxCell>
        <mxCell id="3LhNPNoVYmogercakAYq-1" value="网页样本元素" style="shape=note2;boundedLbl=1;whiteSpace=wrap;html=1;size=25;verticalAlign=top;align=center;" parent="1" vertex="1">
          <mxGeometry x="239" y="140" width="191" height="60" as="geometry" />
        </mxCell>
        <mxCell id="3LhNPNoVYmogercakAYq-17" style="edgeStyle=orthogonalEdgeStyle;rounded=0;orthogonalLoop=1;jettySize=auto;html=1;entryX=0.5;entryY=0;entryDx=0;entryDy=0;" parent="1" source="3LhNPNoVYmogercakAYq-6" target="3LhNPNoVYmogercakAYq-16" edge="1">
          <mxGeometry relative="1" as="geometry" />
        </mxCell>
        <mxCell id="3LhNPNoVYmogercakAYq-6" value="与网页内其他元素对&#xa;比XPath路径相似度" style="fontStyle=0;fontSize=12;" parent="1" vertex="1">
          <mxGeometry x="470" y="350" width="191" height="50" as="geometry" />
        </mxCell>
        <mxCell id="3LhNPNoVYmogercakAYq-11" style="edgeStyle=orthogonalEdgeStyle;rounded=0;orthogonalLoop=1;jettySize=auto;html=1;entryX=0.5;entryY=0;entryDx=0;entryDy=0;" parent="1" source="3LhNPNoVYmogercakAYq-8" target="3LhNPNoVYmogercakAYq-10" edge="1">
          <mxGeometry relative="1" as="geometry" />
        </mxCell>
        <mxCell id="3LhNPNoVYmogercakAYq-12" value="是" style="edgeLabel;html=1;align=center;verticalAlign=middle;resizable=0;points=[];" parent="3LhNPNoVYmogercakAYq-11" vertex="1" connectable="0">
          <mxGeometry x="0.3365" y="1" relative="1" as="geometry">
            <mxPoint x="-1" y="-6" as="offset" />
          </mxGeometry>
        </mxCell>
        <mxCell id="EQeFrDKdw7VFjZ8_Hjx0-2" value="否" style="edgeStyle=orthogonalEdgeStyle;rounded=0;orthogonalLoop=1;jettySize=auto;html=1;entryX=0.5;entryY=0;entryDx=0;entryDy=0;" edge="1" parent="1" source="3LhNPNoVYmogercakAYq-8" target="3LhNPNoVYmogercakAYq-6">
          <mxGeometry relative="1" as="geometry" />
        </mxCell>
        <mxCell id="3LhNPNoVYmogercakAYq-8" value="是否表格元素" style="strokeWidth=2;html=1;shape=mxgraph.flowchart.decision;whiteSpace=wrap;" parent="1" vertex="1">
          <mxGeometry x="249" y="240" width="171" height="100" as="geometry" />
        </mxCell>
        <mxCell id="EQeFrDKdw7VFjZ8_Hjx0-3" style="edgeStyle=orthogonalEdgeStyle;rounded=0;orthogonalLoop=1;jettySize=auto;html=1;entryX=0.5;entryY=0;entryDx=0;entryDy=0;" edge="1" parent="1" source="3LhNPNoVYmogercakAYq-10" target="3LhNPNoVYmogercakAYq-21">
          <mxGeometry relative="1" as="geometry" />
        </mxCell>
        <mxCell id="3LhNPNoVYmogercakAYq-10" value="标记为表格元素" style="fontStyle=0;fontSize=12;" parent="1" vertex="1">
          <mxGeometry x="239" y="420" width="191" height="50" as="geometry" />
        </mxCell>
        <mxCell id="3LhNPNoVYmogercakAYq-22" style="edgeStyle=orthogonalEdgeStyle;rounded=0;orthogonalLoop=1;jettySize=auto;html=1;entryX=0.5;entryY=0;entryDx=0;entryDy=0;" parent="1" source="3LhNPNoVYmogercakAYq-16" target="3LhNPNoVYmogercakAYq-21" edge="1">
          <mxGeometry relative="1" as="geometry">
            <Array as="points">
              <mxPoint x="566" y="570" />
              <mxPoint x="335" y="570" />
            </Array>
          </mxGeometry>
        </mxCell>
        <mxCell id="3LhNPNoVYmogercakAYq-16" value="去异求同，保留相同属性" style="fontStyle=0;fontSize=12;" parent="1" vertex="1">
          <mxGeometry x="470" y="480" width="191" height="50" as="geometry" />
        </mxCell>
        <mxCell id="3LhNPNoVYmogercakAYq-21" value="样本元素配置信息" style="fontStyle=0;fontSize=12;" parent="1" vertex="1">
          <mxGeometry x="239" y="620" width="191" height="50" as="geometry" />
        </mxCell>
      </root>
    </mxGraphModel>
  </diagram>
</mxfile>
